<svg width="32" height="32" viewBox="0 0 100 100" fill="none" xmlns="http://www.w3.org/2000/svg">
<g clip-path="url(#clip0)">
<path opacity="0.4" d="M49.6165 99.2985C76.9726 99.2985 99.1491 77.122 99.1491 49.7659C99.1491 22.4099 76.9726 0.233398 49.6165 0.233398C22.2605 0.233398 0.0839844 22.4099 0.0839844 49.7659C0.0839844 77.122 22.2605 99.2985 49.6165 99.2985Z" fill="#C9B8A5"/>
<path d="M6.72224 25C13.2651 13.5885 24.0688 5.23943 36.7615 1.78576C49.5485 -1.72097 63.2045 -0.00917022 74.7302 6.54519C86.256 13.0995 94.7092 23.9605 98.2331 36.7428C100.893 46.3585 100.606 56.5514 97.4092 66.0022C94.2122 75.4531 88.2525 83.727 80.3011 89.7532C75.0335 93.7542 69.0338 96.6858 62.6403 98.3826C53.0543 100.879 42.9432 100.473 33.5878 97.2175C24.2324 93.962 16.0538 88.003 10.088 80.0954C6.17107 74.878 3.30393 68.9501 1.64557 62.6403C-1.71728 49.9166 0.108684 36.3782 6.72224 25ZM6.72224 25C0.190005 36.3771 -1.5554 49.8829 1.86996 62.5468C3.58701 68.7907 6.52653 74.6316 10.5181 79.7308C16.476 87.3701 24.5647 93.0718 33.7621 96.1154C42.9595 99.159 52.8528 99.4079 62.1916 96.8306C74.6435 93.4367 85.251 85.2618 91.7051 74.0853C98.1592 62.9088 99.9375 49.6354 96.6531 37.1541C93.3604 24.5723 85.2116 13.8102 73.9942 7.22882C62.7769 0.6474 49.407 -1.21595 36.8176 2.04754C24.1439 5.41472 13.3217 13.6684 6.72224 25Z" fill="#C9B8A5"/>
<path d="M30.0299 40.3232C26.9352 43.9881 21.0171 44.0629 16.8193 40.5195C13.2946 37.5277 12.1447 32.9279 13.6406 29.3658C13.9389 28.6715 14.3391 28.0255 14.8279 27.4492C17.9225 23.7936 23.8406 23.7095 28.0385 27.2529C28.9848 28.0501 29.7934 28.9977 30.4319 30.0576C32.4326 33.4234 32.4046 37.5184 30.0299 40.3232Z" fill="#FCB404"/>
<path d="M23.7007 43.3992C21.1056 43.3704 18.6047 42.4231 16.6419 40.7253C13.0986 37.7336 11.7616 33.0122 13.3884 29.2538C13.697 28.5365 14.1097 27.8686 14.6131 27.2717C17.8013 23.532 23.9063 23.4011 28.2164 27.0473C29.1866 27.864 30.0172 28.8334 30.6752 29.9176C32.8069 33.5077 32.6386 37.6588 30.2452 40.4916C29.4333 41.4253 28.4264 42.1696 27.2957 42.6719C26.1649 43.1743 24.9378 43.4226 23.7007 43.3992ZM21.1576 24.925C20.0015 24.9003 18.8539 25.1295 17.7959 25.5963C16.7378 26.0631 15.795 26.7563 15.0339 27.627C14.5602 28.1882 14.1755 28.8188 13.8932 29.4968C12.36 33.0309 13.6408 37.4811 16.9972 40.3233C21.0735 43.7732 26.8233 43.6984 29.8244 40.1644C32.0683 37.5092 32.2179 33.6199 30.1984 30.2261C29.5742 29.1914 28.7846 28.266 27.8611 27.4867C25.9981 25.8699 23.6241 24.9627 21.1576 24.925Z" fill="#613A12"/>
<path d="M29.1715 41.9967C31.6169 39.108 30.1937 33.8832 25.9927 30.3267C21.7917 26.7703 16.4036 26.229 13.9582 29.1177C11.5127 32.0064 12.9359 37.2312 17.1369 40.7876C21.3379 44.3441 26.726 44.8854 29.1715 41.9967Z" fill="#6D3317"/>
<path d="M24.6734 44.1192C21.8182 44.0034 19.0919 42.8996 16.9603 40.9965C12.6502 37.397 11.2198 31.9371 13.7535 28.9827C16.2871 26.0283 21.8593 26.4677 26.1787 30.1139C28.1563 31.7253 29.6082 33.89 30.3485 36.3312C30.6871 37.3051 30.7789 38.3478 30.6158 39.366C30.4526 40.3841 30.0395 41.3458 29.4135 42.1652C28.818 42.8223 28.0836 43.3385 27.2638 43.6765C26.4439 44.0145 25.559 44.1657 24.6734 44.1192ZM18.4468 27.5335C17.6483 27.4943 16.8511 27.6324 16.1123 27.9379C15.3736 28.2435 14.7117 28.7088 14.1742 29.3006C11.8275 32.1053 13.2393 37.1259 17.3155 40.5758C21.3918 44.0257 26.6087 44.5773 28.9835 41.8099C29.5527 41.0602 29.9282 40.1815 30.0766 39.252C30.225 38.3224 30.1418 37.3705 29.8342 36.4808C29.1257 34.1453 27.7355 32.0747 25.8421 30.5347C23.7988 28.7083 21.185 27.6476 18.4468 27.5335Z" fill="#613A12"/>
<g opacity="0.53">
<path opacity="0.53" d="M22.5505 30.1699C22.5857 30.4497 22.6894 30.7164 22.8525 30.9464C23.0156 31.1764 23.2331 31.3625 23.4854 31.4882C21.9896 31.6004 20.3441 31.6658 19.1567 30.7402C19.8092 31.9134 20.8411 32.8299 22.0831 33.3393C20.7496 33.9196 19.2501 33.9927 17.8665 33.545C18.4434 33.9939 19.071 34.3736 19.7364 34.6763C19.1388 34.6291 18.5376 34.6668 17.9507 34.7885C18.5552 35.2521 19.2709 35.5487 20.0262 35.6486C18.3927 35.8048 16.7526 35.4276 15.3516 34.5734C16.2359 36.1407 17.4952 37.4641 19.0165 38.4253C18.447 38.6776 17.8236 38.7837 17.2027 38.7339C17.6221 39.2036 18.1778 39.5305 18.7921 39.6688H17.2588C17.3 40.1424 17.4517 40.5998 17.7017 41.0041C17.9518 41.4084 18.2932 41.7484 18.6986 41.9968C19.524 42.4732 20.4204 42.8141 21.3538 43.0065C22.183 43.3327 23.105 43.3327 23.9342 43.0065C24.7569 42.5577 25.0748 41.5667 25.4768 40.7253C26.5146 38.5188 28.4686 36.9856 29.7869 34.9474C31.0023 33.0776 28.2255 32.0024 26.7483 31.6565C26.178 31.591 22.6253 30.8524 22.5505 30.1699Z" fill="#472702"/>
</g>
<path d="M82.414 40.5198C78.2068 44.0725 72.2981 43.9884 69.1941 40.3235C68.1516 39.022 67.5086 37.4464 67.3426 35.7872C67.1767 34.128 67.4951 32.4563 68.2592 30.9742C68.9457 29.5366 69.9305 28.2618 71.1481 27.2345C75.3459 23.6817 81.264 23.7752 84.368 27.4308C84.5269 27.6271 84.6859 27.8328 84.8261 28.0385C87.3972 31.7315 86.3875 37.1541 82.414 40.5198Z" fill="#FCB404"/>
<path d="M75.5331 43.3992C74.2963 43.427 73.0685 43.1816 71.9373 42.6807C70.8061 42.1797 69.7993 41.4355 68.9886 40.501C67.9202 39.1609 67.2632 37.5397 67.0973 35.8339C66.9314 34.1281 67.2636 32.4108 68.0537 30.8899C68.7666 29.4085 69.7902 28.0979 71.0548 27.0473C75.3648 23.4011 81.4699 23.504 84.658 27.2717C84.828 27.4719 84.9871 27.681 85.1348 27.8981C87.7526 31.6939 86.6494 37.3222 82.6386 40.7253C80.6618 42.4306 78.1436 43.3782 75.5331 43.3992ZM78.0668 24.925C75.6022 24.9551 73.2277 25.8559 71.3633 27.4681C70.1803 28.4744 69.2243 29.7204 68.5585 31.1236C67.8146 32.5497 67.4998 34.1608 67.6525 35.762C67.8052 37.3632 68.4186 38.8859 69.4187 40.1457C72.4104 43.6797 78.1696 43.7545 82.2459 40.3046C86.0137 37.0885 87.0888 31.7874 84.6393 28.216C84.5002 28.0119 84.3504 27.8153 84.1905 27.627C83.4294 26.7563 82.4866 26.0632 81.4285 25.5963C80.3705 25.1295 79.223 24.9003 78.0668 24.925Z" fill="#613A12"/>
<path d="M82.0962 40.7783C86.2973 37.2218 87.7204 31.997 85.275 29.1083C82.8295 26.2196 77.4415 26.7609 73.2404 30.3173C69.0394 33.8738 67.6162 39.0986 70.0617 41.9873C72.5072 44.876 77.8952 44.3347 82.0962 40.7783Z" fill="#6D3317"/>
<path d="M74.5424 44.1282C73.6666 44.1658 72.7934 44.0092 71.9853 43.6698C71.1771 43.3304 70.454 42.8165 69.8677 42.1649C69.2417 41.3456 68.8286 40.3838 68.6655 39.3657C68.5023 38.3475 68.5942 37.3049 68.9328 36.3309C69.6695 33.8904 71.1182 31.7255 73.0932 30.1137C77.4033 26.4674 82.9754 25.9345 85.5184 28.9356C86.1444 29.755 86.5575 30.7167 86.7207 31.7349C86.8838 32.753 86.792 33.7957 86.4534 34.7696C85.682 37.2006 84.2432 39.366 82.3009 41.019C80.3586 42.672 77.991 43.7461 75.4679 44.1189C75.1407 44.1095 74.7948 44.1282 74.5424 44.1282ZM80.7783 27.5333C78.0502 27.6552 75.4479 28.7153 73.4111 30.5344C71.5237 32.0721 70.1344 34.1348 69.419 36.4618C69.1114 37.3515 69.0282 38.3034 69.1766 39.233C69.325 40.1626 69.7005 41.0412 70.2697 41.7909C70.9159 42.4776 71.7217 42.994 72.6155 43.2941C73.5094 43.5942 74.4635 43.6688 75.3932 43.5112C77.801 43.1491 80.0602 42.1225 81.9166 40.5469C83.773 38.9712 85.1531 36.909 85.9018 34.592C86.2131 33.7034 86.2991 32.7515 86.1523 31.8214C86.0055 30.8914 85.6303 30.0123 85.0603 29.2629C84.5171 28.6782 83.8519 28.2202 83.1119 27.9213C82.3719 27.6224 81.5752 27.4899 80.7783 27.5333Z" fill="#613A12"/>
<g opacity="0.53">
<path opacity="0.53" d="M71.709 31.1704C74.4512 31.5925 77.2383 31.6365 79.9925 31.3013C79.2873 31.8655 78.4721 32.2763 77.599 32.5074C78.5264 32.9304 79.5641 33.0483 80.5628 32.8439C79.8642 33.0829 79.1934 33.3963 78.562 33.7789C80.4319 34.6296 82.6009 33.7789 84.4521 32.9C84.0644 34.2333 83.3945 35.4677 82.488 36.5194C81.5814 37.5712 80.4593 38.4157 79.1978 38.9958C80.7985 38.9943 82.3618 38.5122 83.6854 37.6121C83.1927 38.8021 82.3947 39.8411 81.372 40.6241C80.3494 41.4071 79.1382 41.9065 77.8608 42.0717C77.2023 39.8415 76.0522 37.7872 74.4951 36.0601C73.8997 35.4851 73.3554 34.8594 72.8683 34.1902C72.6238 33.846 72.4549 33.454 72.3727 33.0399C72.2905 32.6258 72.2969 32.1989 72.3915 31.7875L73.3919 31.5818" fill="#472702"/>
</g>
<path d="M82.8164 54.9644C82.8164 55.703 82.8164 56.4229 82.7416 57.1054C82.637 58.6311 82.3865 60.1432 81.9936 61.6211C81.6337 62.9706 81.1159 64.2729 80.451 65.5011C79.8314 66.6537 79.0749 67.7273 78.1978 68.6985C77.5881 69.3737 76.9253 69.999 76.2157 70.5684C70.2322 75.3833 60.752 76.7857 50.0377 76.7857C39.9873 76.7857 30.9839 75.5422 24.9816 71.3818C24.0006 70.704 23.0892 69.9304 22.261 69.0725C21.3941 68.176 20.6348 67.1813 19.9985 66.1088C19.1819 64.7341 18.553 63.2562 18.1286 61.7146C17.7128 60.187 17.4559 58.6204 17.362 57.04C17.3059 56.3575 17.2872 55.6469 17.2872 54.9177C17.2844 53.6177 17.3625 52.3187 17.5209 51.0284C18.2773 44.8832 20.8119 39.0927 24.8134 34.3679C25.0377 34.0875 25.2715 33.8163 25.5146 33.5546C28.5796 30.1915 32.307 27.4987 36.4626 25.6451L37.5564 25.1776C39.2118 24.5046 40.919 23.9668 42.6612 23.5695C43.2782 23.4293 43.914 23.3077 44.531 23.1955C45.3537 23.0647 46.1952 22.9525 47.0366 22.8777H47.5882C48.4016 22.8216 49.2244 22.7842 50.0471 22.7842C51.3815 22.7845 52.7146 22.8657 54.0392 23.0273H54.2449C55.0022 23.1301 55.7502 23.2516 56.4981 23.3919C56.9749 23.4854 57.433 23.5976 57.9192 23.7098C59.8042 24.1664 61.6441 24.7922 63.4166 25.5796L64.0804 25.8788C66.0558 26.7887 67.9351 27.8943 69.6899 29.1791L70.1855 29.5531C73.7177 32.2347 76.6549 35.6201 78.8113 39.4953C80.9678 43.3705 82.2965 47.651 82.7135 52.0662C82.7696 52.9917 82.8164 53.9734 82.8164 54.9644Z" fill="#FCB404"/>
<path d="M50.0661 77.066C38.2392 77.066 30.2269 75.327 24.823 71.606C23.8121 70.9193 22.8725 70.1332 22.0182 69.2594C21.1396 68.3465 20.368 67.3365 19.7183 66.2489C18.9001 64.8518 18.2713 63.3521 17.8484 61.7893C17.4339 60.2606 17.1708 58.6948 17.0631 57.1146C17.0631 56.4228 16.9883 55.7029 16.9883 54.9736C16.9972 48.4913 18.953 42.1611 22.602 36.8034C26.2511 31.4457 31.4252 27.3074 37.4539 24.925C39.722 23.9983 42.0864 23.3272 44.5032 22.9243C45.5223 22.756 46.5507 22.6345 47.5792 22.5597C49.82 22.3952 52.0715 22.4516 54.3013 22.7279C55.0492 22.8214 55.8159 22.943 56.5732 23.0926C58.9814 23.564 61.3299 24.3009 63.5758 25.2896C68.8941 27.6099 73.4954 31.3099 76.9031 36.0063C80.3108 40.7027 82.4008 46.2248 82.9569 52.0006C83.0504 52.9355 83.0878 53.9733 83.0878 54.9643C83.0878 55.7122 83.0878 56.4415 83.013 57.1333C82.9203 58.6781 82.6729 60.2097 82.2744 61.7051C81.9097 63.0737 81.3857 64.3948 80.713 65.6412C79.634 67.6284 78.1686 69.3798 76.403 70.7926C71.0552 75.0653 62.7063 77.066 50.0661 77.066ZM50.0661 23.0178C49.262 23.0178 48.4393 23.0178 47.6259 23.1019C46.6162 23.1767 45.5971 23.3076 44.5967 23.4665C42.2196 23.8657 39.8933 24.5241 37.6596 25.4299C32.3692 27.5581 27.7424 31.0593 24.2566 35.5723C20.7708 40.0853 18.5522 45.4466 17.8297 51.103C17.6768 52.3845 17.5987 53.6738 17.596 54.9643C17.596 55.6748 17.596 56.3854 17.6708 57.0679C17.7724 58.6137 18.0292 60.1453 18.4374 61.6397C18.8656 63.1593 19.4944 64.615 20.3073 65.9684C20.9375 67.018 21.6839 67.9934 22.5324 68.876C23.3491 69.7235 24.2479 70.4876 25.2157 71.1573C30.4419 74.7941 38.3327 76.5144 50.0661 76.5144C62.5754 76.5144 70.8308 74.5511 76.0384 70.3532C76.7394 69.784 77.3928 69.1586 77.9924 68.4834C78.8544 67.529 79.5984 66.4743 80.2082 65.342C80.8612 64.1334 81.3726 62.8534 81.7321 61.5275C82.1178 60.0647 82.362 58.5681 82.4614 57.0585C82.5174 56.3854 82.5361 55.6748 82.5361 54.9362C82.5361 54.0013 82.5361 52.9822 82.4053 52.0193C81.8483 46.3448 79.7859 40.922 76.4312 36.3115C73.0765 31.7011 68.5513 28.0703 63.3234 25.7945C61.1222 24.8246 58.8209 24.1003 56.461 23.6348C55.7224 23.4946 54.9651 23.373 54.2265 23.2796C52.8468 23.1028 51.4571 23.0153 50.0661 23.0178Z" fill="#613A12"/>
<path d="M43.0915 43.1561C38.2486 37.0043 36.8649 29.5809 36.4629 25.6449L37.5568 25.1774C39.2121 24.5044 40.9193 23.9666 42.6615 23.5693C41.2965 30.787 43.0915 43.1561 43.0915 43.1561Z" fill="#613A12"/>
<path d="M43.0913 43.4271C43.0488 43.4269 43.0067 43.4176 42.9681 43.3999C42.9294 43.3822 42.8949 43.3564 42.867 43.3243C37.9866 37.107 36.5842 29.5995 36.1822 25.6728C36.1786 25.6169 36.1918 25.5612 36.2201 25.5129C36.2485 25.4646 36.2906 25.4258 36.3412 25.4017C36.7432 25.2147 37.1265 25.0558 37.4537 24.9249C39.1208 24.2439 40.8405 23.6999 42.5958 23.2981C42.6408 23.289 42.6874 23.291 42.7314 23.304C42.7754 23.3171 42.8155 23.3407 42.8483 23.3729C42.8802 23.406 42.9044 23.4459 42.9189 23.4896C42.9335 23.5333 42.9381 23.5796 42.9324 23.6253C41.5861 30.7121 43.3438 42.9877 43.3625 43.1186C43.3694 43.1786 43.3567 43.2392 43.3264 43.2914C43.2961 43.3436 43.2497 43.3847 43.1942 43.4084C43.162 43.423 43.1266 43.4294 43.0913 43.4271ZM36.7525 25.8131C37.1546 29.5528 38.4541 36.3217 42.68 42.1556C42.2967 39.0797 41.3056 29.9174 42.3154 23.9339C40.7233 24.3198 39.161 24.8197 37.6407 25.4297L36.7525 25.8131Z" fill="#613A12"/>
<path d="M64.0992 25.8413C63.6691 29.8148 62.2294 37.0605 57.4893 43.1562C57.4893 43.1562 59.2656 30.918 57.938 23.6816" fill="#613A12"/>
<path d="M57.4887 43.4274C57.4551 43.437 57.4195 43.437 57.3859 43.4274C57.3283 43.4064 57.28 43.3659 57.2493 43.313C57.2185 43.26 57.2073 43.1979 57.2176 43.1376C57.2176 43.016 58.9659 30.8526 57.6663 23.7471C57.6596 23.7115 57.6602 23.6748 57.6679 23.6394C57.6756 23.6039 57.6904 23.5704 57.7113 23.5408C57.7322 23.5111 57.7589 23.486 57.7897 23.4668C57.8205 23.4477 57.8549 23.4349 57.8907 23.4293C57.9257 23.4225 57.9617 23.4227 57.9966 23.4298C58.0316 23.4369 58.0647 23.4509 58.0943 23.4709C58.1238 23.4908 58.1491 23.5164 58.1687 23.5462C58.1883 23.576 58.2019 23.6093 58.2086 23.6443C59.3025 29.6185 58.2927 39.0519 57.9001 42.1746C62.1446 36.3126 63.4348 29.4783 63.8275 25.832C63.8298 25.7955 63.8395 25.7599 63.856 25.7272C63.8724 25.6946 63.8953 25.6656 63.9233 25.642C63.9512 25.6184 63.9836 25.6007 64.0186 25.59C64.0536 25.5793 64.0903 25.5758 64.1267 25.5796C64.1995 25.589 64.2658 25.6265 64.3113 25.6842C64.3567 25.7419 64.3777 25.8151 64.3698 25.8881C63.9584 29.7774 62.4999 37.2101 57.7037 43.3433C57.6767 43.3728 57.6433 43.3957 57.606 43.4103C57.5687 43.4249 57.5286 43.4308 57.4887 43.4274Z" fill="#613A12"/>
<path d="M54.0581 22.9802C53.9085 42.2584 50.3184 45.1287 50.3184 45.1287C45.5129 38.1354 46.401 27.365 47.0555 22.8774H47.6071C48.4205 22.8213 49.2432 22.7839 50.066 22.7839C51.3994 22.7687 52.7326 22.8343 54.0581 22.9802Z" fill="#613A12"/>
<path d="M50.3179 45.4093C50.2429 45.3927 50.1765 45.3496 50.1309 45.2878C45.2412 38.173 46.1855 27.2156 46.8213 22.8495C46.831 22.7894 46.8599 22.7342 46.9038 22.692C46.9476 22.6499 47.004 22.6231 47.0644 22.6158L47.6066 22.569C49.7877 22.4021 51.9799 22.4522 54.1511 22.7186C54.2189 22.7234 54.2822 22.7544 54.3275 22.805C54.3729 22.8556 54.3968 22.9218 54.3942 22.9897C54.2259 42.1745 50.6451 45.2223 50.4862 45.3439C50.4396 45.385 50.38 45.4082 50.3179 45.4093ZM47.2981 23.13C46.6904 27.5148 45.8676 37.8364 50.3459 44.6801C51.0939 43.6891 53.6369 39.136 53.7865 23.2235C51.7407 22.9945 49.6781 22.957 47.6253 23.1113L47.2981 23.13Z" fill="#613A12"/>
<path d="M82.8167 54.9645C82.8167 55.7031 82.8167 56.423 82.7419 57.1148C80.9809 57.0568 79.2487 56.6521 77.6445 55.9237C76.0402 55.1954 74.5953 54.1577 73.3926 52.8702C76.4311 54.5344 80.0212 53.4219 82.7419 52.0288C82.7699 52.9918 82.8167 53.9735 82.8167 54.9645Z" fill="#613A12"/>
<path d="M82.7418 57.3859C80.9368 57.3359 79.16 56.9255 77.5159 56.1789C75.8718 55.4323 74.3936 54.3646 73.1681 53.0385C73.1294 52.9891 73.1084 52.9283 73.1084 52.8655C73.1084 52.8028 73.1294 52.7419 73.1681 52.6926C73.2085 52.6423 73.2656 52.6081 73.329 52.5961C73.3924 52.5841 73.458 52.5951 73.514 52.6271C76.4871 54.2633 80.0585 53.0666 82.5548 51.7764C82.5954 51.7558 82.6402 51.7451 82.6857 51.7451C82.7311 51.7451 82.776 51.7558 82.8166 51.7764C82.8559 51.7978 82.8893 51.8287 82.9137 51.8662C82.9382 51.9037 82.953 51.9468 82.9568 51.9914C83.0503 52.9263 83.0877 53.9641 83.0877 54.9551C83.0877 55.7031 83.0877 56.4323 83.0129 57.1242C83.0105 57.1944 82.9808 57.261 82.9302 57.3099C82.8797 57.3587 82.8121 57.386 82.7418 57.3859ZM74.5985 53.6462C76.8193 55.5153 79.5827 56.62 82.48 56.7969C82.48 56.1986 82.5361 55.5722 82.5361 54.9271C82.5361 54.0856 82.5361 53.2442 82.4426 52.4215C80.2361 53.5434 77.3098 54.469 74.5985 53.6743V53.6462Z" fill="#613A12"/>
<path d="M81.9939 61.6209C81.634 62.9704 81.1162 64.2727 80.4513 65.5009C78.0298 64.3509 74.608 62.0416 74.5986 58.2178C76.7567 59.9262 79.2925 61.0932 81.9939 61.6209Z" fill="#613A12"/>
<path d="M80.4507 65.7814C80.4138 65.7898 80.3754 65.7898 80.3385 65.7814C78.0947 64.7155 74.3269 62.3128 74.3269 58.2458C74.3085 58.2151 74.2963 58.1811 74.2911 58.1457C74.2858 58.1103 74.2875 58.0742 74.2962 58.0395C74.3049 58.0047 74.3203 57.9721 74.3417 57.9433C74.363 57.9145 74.3897 57.8903 74.4204 57.8719C74.4511 57.8534 74.4851 57.8412 74.5205 57.836C74.556 57.8307 74.592 57.8325 74.6268 57.8411C74.6615 57.8498 74.6942 57.8653 74.7229 57.8866C74.7517 57.9079 74.776 57.9346 74.7944 57.9653C76.9143 59.6386 79.4006 60.7856 82.0494 61.3124C82.0889 61.3176 82.1268 61.3311 82.1607 61.352C82.1945 61.373 82.2236 61.4009 82.2458 61.4339C82.274 61.4726 82.2914 61.5181 82.2964 61.5657C82.3013 61.6133 82.2935 61.6614 82.2738 61.7051C81.9092 63.0736 81.3851 64.3947 80.7125 65.6411C80.6872 65.6874 80.649 65.7253 80.6025 65.7503C80.556 65.7752 80.5033 65.786 80.4507 65.7814ZM74.9066 58.7974C75.2151 61.9294 77.9358 63.9489 80.3385 65.1362C80.8762 64.0824 81.3145 62.9806 81.6474 61.8453C79.2039 61.3369 76.9023 60.2962 74.9066 58.7974Z" fill="#613A12"/>
<path d="M78.1976 68.6981C77.5878 69.3733 76.925 69.9986 76.2155 70.568C75.0122 68.9599 74.2195 67.0825 73.9062 65.0986C75.0094 66.642 76.4858 67.8804 78.1976 68.6981Z" fill="#613A12"/>
<path d="M76.216 70.8488C76.1428 70.8395 76.076 70.8028 76.029 70.7459C74.8003 69.0949 73.9917 67.1696 73.673 65.1364C73.6609 65.0743 73.6709 65.0099 73.7013 64.9545C73.7316 64.899 73.7804 64.8558 73.8392 64.8325C73.898 64.8092 73.9631 64.8072 74.0232 64.8269C74.0834 64.8465 74.1347 64.8865 74.1685 64.94C75.2446 66.4355 76.6782 67.6376 78.3383 68.4367C78.3796 68.4541 78.4163 68.481 78.4455 68.515C78.4747 68.5491 78.4956 68.5895 78.5065 68.633C78.5169 68.6758 78.5164 68.7204 78.505 68.7629C78.4935 68.8054 78.4716 68.8443 78.4411 68.8761C77.8218 69.5551 77.1462 70.1806 76.4216 70.7459C76.397 70.7771 76.3658 70.8025 76.3303 70.8203C76.2947 70.838 76.2557 70.8478 76.216 70.8488ZM74.4115 66.1741C74.7826 67.6119 75.4166 68.9686 76.2814 70.1756C76.8024 69.7493 77.2958 69.2902 77.7586 68.8013C76.4785 68.1541 75.3405 67.2577 74.4115 66.1648V66.1741Z" fill="#613A12"/>
<path d="M28.5154 52.8698C27.1049 54.374 25.3692 55.536 23.441 56.2668C21.5127 56.9976 19.4429 57.2779 17.3897 57.0863C17.343 56.4038 17.3243 55.6933 17.3243 54.964C17.3215 53.664 17.3996 52.365 17.558 51.0747C20.2506 52.7763 24.8037 54.8986 28.5154 52.8698Z" fill="#613A12"/>
<path d="M18.4837 57.4044C18.1285 57.4044 17.7545 57.4044 17.3712 57.4044C17.3057 57.4 17.244 57.372 17.1975 57.3256C17.1511 57.2792 17.1231 57.2175 17.1187 57.152C17.1187 56.4601 17.0439 55.7402 17.0439 55.011C17.0452 53.6984 17.1263 52.3871 17.287 51.0843C17.2926 51.039 17.3091 50.9957 17.3352 50.9582C17.3612 50.9208 17.3961 50.8902 17.4366 50.8693C17.4788 50.8486 17.5252 50.8379 17.5722 50.8379C17.6192 50.8379 17.6655 50.8486 17.7077 50.8693C20.1199 52.3932 24.7197 54.6651 28.3846 52.655C28.4392 52.6236 28.5033 52.6129 28.5651 52.6249C28.6269 52.637 28.6824 52.6709 28.7212 52.7204C28.7615 52.7691 28.7835 52.8302 28.7835 52.8934C28.7835 52.9565 28.7615 53.0177 28.7212 53.0663C27.4076 54.4581 25.8195 55.5622 24.0574 56.3089C22.2952 57.0556 20.3974 57.4286 18.4837 57.4044ZM17.6516 56.8248C21.1503 57.0533 24.6025 55.9249 27.2908 53.6741C23.8689 54.6744 20.0731 52.9261 17.7825 51.5331C17.6594 52.6727 17.597 53.818 17.5956 54.9643C17.5956 55.6 17.6143 56.2171 17.6516 56.8248Z" fill="#613A12"/>
<path d="M27.2905 58.2178C27.2905 62.8924 22.1858 65.2952 20.0261 66.1086C19.2057 64.7358 18.5766 63.2574 18.1562 61.7144C22.8028 61.9201 27.2905 58.2178 27.2905 58.2178Z" fill="#613A12"/>
<path d="M20.0263 66.3798C19.9781 66.3799 19.9307 66.368 19.8882 66.3451C19.8458 66.3223 19.8097 66.2892 19.7833 66.2489C18.9651 64.8518 18.3363 63.3521 17.9134 61.7892C17.8997 61.7481 17.8967 61.7042 17.9049 61.6616C17.9131 61.619 17.9321 61.5793 17.9601 61.5462C17.9895 61.5133 18.0256 61.4872 18.0659 61.4694C18.1062 61.4517 18.1498 61.4428 18.1939 61.4433C22.6535 61.6397 27.1131 58.0402 27.1131 57.9654C27.153 57.9307 27.2022 57.9084 27.2546 57.9014C27.3071 57.8943 27.3604 57.9027 27.4081 57.9255C27.4558 57.9484 27.4958 57.9847 27.5231 58.03C27.5504 58.0753 27.5639 58.1276 27.5619 58.1804C27.5619 63.0047 22.3543 65.4822 20.0824 66.3237C20.0685 66.3466 20.0492 66.3658 20.0263 66.3798ZM18.5398 62.0043C18.9252 63.3104 19.465 64.5658 20.1479 65.744C22.2702 64.9119 26.5895 62.7429 26.9822 58.7788C25.7388 59.7137 22.2515 61.9856 18.5679 61.9856L18.5398 62.0043Z" fill="#613A12"/>
<path d="M27.9824 65.0986C27.6132 67.4343 26.5813 69.6149 25.0093 71.3814C24.0271 70.7012 23.1129 69.9279 22.2793 69.0721C25.5328 68.6607 27.9824 65.0986 27.9824 65.0986Z" fill="#613A12"/>
<path d="M25.0093 71.6529C24.9578 71.6707 24.9018 71.6707 24.8503 71.6529C23.8395 70.9662 22.8999 70.18 22.0455 69.3062C22.01 69.27 21.9857 69.2241 21.9758 69.1743C21.9658 69.1245 21.9706 69.0729 21.9894 69.0258C22.0051 68.9764 22.0345 68.9326 22.0743 68.8995C22.1141 68.8663 22.1625 68.8453 22.2138 68.8388C25.2991 68.4555 27.6925 65.0243 27.7205 64.9869C27.756 64.9359 27.8074 64.8982 27.8666 64.8796C27.9258 64.861 27.9895 64.8626 28.0478 64.884C28.1072 64.9053 28.1569 64.9472 28.1878 65.0022C28.2187 65.0572 28.2287 65.1214 28.2161 65.1832C27.8481 67.5498 26.8173 69.7638 25.243 71.5688C25.2127 71.5992 25.176 71.6226 25.1356 71.6372C25.0952 71.6517 25.052 71.6571 25.0093 71.6529ZM22.8496 69.2501C23.5103 69.9009 24.2163 70.5039 24.9625 71.0546C26.1554 69.6507 27.0152 67.995 27.4775 66.2116C26.2738 67.665 24.6616 68.7235 22.8496 69.2501Z" fill="#613A12"/>
<path d="M68.9415 51.1125C68.9678 52.5515 68.4954 53.9554 67.6046 55.0859C67.271 55.5174 66.8471 55.8706 66.3626 56.121C65.8781 56.3713 65.3447 56.5126 64.7998 56.535C62.4905 56.535 60.6113 54.1136 60.6113 51.1125C60.6113 50.7617 60.6394 50.4116 60.6955 50.0653C61.0694 47.5784 62.7617 45.6992 64.7998 45.6992C67.0623 45.6992 68.9415 48.1207 68.9415 51.1125Z" fill="#472702"/>
<path d="M64.7627 56.6754C62.3787 56.6754 60.4434 54.1791 60.4434 51.1126C60.445 50.756 60.47 50.4 60.5182 50.0467C60.9108 47.4476 62.6965 45.5591 64.7627 45.5591C67.1374 45.5591 69.0728 48.0553 69.0728 51.1126C69.0938 52.5783 68.612 54.007 67.7078 55.1608C67.3613 55.6174 66.9169 55.9904 66.4072 56.2525C65.8976 56.5147 65.3356 56.6591 64.7627 56.6754ZM64.7627 45.8396C62.8368 45.8396 61.1633 47.6253 60.7893 50.0935C60.7411 50.4311 60.7162 50.7716 60.7145 51.1126C60.7145 54.0295 62.5282 56.3949 64.7627 56.3949C65.2947 56.3788 65.8165 56.2447 66.2903 56.0021C66.7641 55.7596 67.178 55.4147 67.5021 54.9925C68.366 53.8857 68.8246 52.5164 68.8016 51.1126C68.8016 48.2049 66.9879 45.8115 64.7627 45.8115V45.8396Z" fill="#472702"/>
<path d="M53.6934 66.4265C53.1324 68.2964 51.8796 70.1102 50.4305 70.1102C50.048 70.0828 49.6763 69.9714 49.3418 69.7839C49.0073 69.5965 48.7182 69.3376 48.4952 69.0257C47.8767 68.2597 47.4217 67.3751 47.1582 66.4265C48.2805 66.3428 49.3774 66.0511 50.3931 65.5664C50.9642 65.8226 51.5551 66.0321 52.1601 66.1928C52.6617 66.3237 53.1755 66.402 53.6934 66.4265Z" fill="#EF5823"/>
<path d="M50.4302 70.3906C50.0061 70.3613 49.594 70.2378 49.2236 70.0292C48.8533 69.8206 48.5341 69.532 48.2892 69.1846C47.643 68.3886 47.1658 67.4692 46.8868 66.4826C46.8755 66.4428 46.8739 66.4008 46.882 66.3602C46.8902 66.3195 46.9078 66.2814 46.9336 66.2489C46.9577 66.2156 46.9884 66.1876 47.0237 66.1667C47.0591 66.1458 47.0984 66.1324 47.1392 66.1274C48.2289 66.0475 49.2942 65.7653 50.2806 65.2953C50.315 65.2765 50.3536 65.2666 50.3928 65.2666C50.432 65.2666 50.4706 65.2765 50.505 65.2953C51.0604 65.5457 51.6358 65.749 52.2253 65.903C52.7092 66.0273 53.2038 66.1056 53.7024 66.1367C53.7447 66.1367 53.7863 66.1469 53.8237 66.1664C53.8612 66.186 53.8933 66.2143 53.9175 66.2489C53.9357 66.2868 53.9452 66.3284 53.9452 66.3705C53.9452 66.4125 53.9357 66.4541 53.9175 66.492C53.3846 68.4366 52.0757 70.3906 50.4302 70.3906ZM47.5226 66.6509C47.7779 67.4452 48.1807 68.1843 48.7099 68.8293C48.9095 69.1075 49.1662 69.3399 49.4629 69.5108C49.7596 69.6817 50.0894 69.7873 50.4302 69.8203C51.6923 69.8203 52.7862 68.2403 53.3285 66.6603C52.9115 66.6202 52.4987 66.5451 52.0944 66.4359C51.5123 66.2855 50.9433 66.0885 50.3928 65.8469C49.4836 66.266 48.5157 66.5435 47.5226 66.6696V66.6509Z" fill="#613A12"/>
<g opacity="0.43">
<path opacity="0.43" d="M63.6036 53.5057C64.2439 53.5057 64.7629 52.702 64.7629 51.7106C64.7629 50.7192 64.2439 49.9155 63.6036 49.9155C62.9634 49.9155 62.4443 50.7192 62.4443 51.7106C62.4443 52.702 62.9634 53.5057 63.6036 53.5057Z" fill="white"/>
</g>
<path d="M40.6415 51.1125C40.6442 52.0383 40.4564 52.9548 40.0899 53.8051C39.8167 54.5639 39.3279 55.2264 38.6835 55.7114C38.0391 56.1963 37.2671 56.4826 36.4623 56.535C34.1531 56.535 32.2832 54.1136 32.2832 51.1125C32.2832 48.1113 34.1531 45.6992 36.4623 45.6992C38.7716 45.6992 40.4545 47.8963 40.6228 50.6824C40.6321 50.8226 40.6415 50.9722 40.6415 51.1125Z" fill="#472702"/>
<path d="M36.4629 56.6754C34.0789 56.6754 32.1436 54.1791 32.1436 51.1126C32.1436 48.046 34.0789 45.5591 36.4629 45.5591C38.6974 45.5591 40.586 47.8123 40.7636 50.6731C40.7636 50.8227 40.7636 50.9723 40.7636 51.1126C40.7709 52.0579 40.5798 52.9943 40.2026 53.8613C39.9206 54.6433 39.4166 55.3261 38.7524 55.8259C38.0881 56.3258 37.2925 56.621 36.4629 56.6754ZM36.4629 45.8115C34.2284 45.8115 32.4147 48.1769 32.4147 51.0845C32.4147 53.9921 34.2284 56.3669 36.4629 56.3669C37.2404 56.3152 37.9857 56.0371 38.607 55.567C39.2283 55.0968 39.6985 54.4551 39.9596 53.721C40.321 52.8892 40.5057 51.9914 40.5018 51.0845C40.5018 50.9443 40.5018 50.804 40.5018 50.6638C40.3242 47.9712 38.5572 45.8115 36.4629 45.8115Z" fill="#472702"/>
<path d="M46.747 66.7163C45.9524 66.7542 45.1604 66.5988 44.439 66.2633C43.7176 65.9279 43.0884 65.4224 42.6053 64.7903C42.5869 64.7578 42.5751 64.7219 42.5705 64.6848C42.5659 64.6477 42.5687 64.6101 42.5787 64.574C42.5887 64.538 42.6057 64.5043 42.6287 64.4748C42.6517 64.4454 42.6803 64.4207 42.7128 64.4023C42.7454 64.3839 42.7812 64.3721 42.8183 64.3675C42.8554 64.3629 42.8931 64.3657 42.9291 64.3757C42.9651 64.3857 42.9988 64.4027 43.0283 64.4257C43.0577 64.4487 43.0824 64.4773 43.1008 64.5098C43.5737 65.1121 44.1937 65.5824 44.9011 65.8755C45.6085 66.1686 46.3794 66.2746 47.1397 66.1834C48.1713 66.0995 49.1805 65.8369 50.1221 65.4074V61.2002C50.134 61.1357 50.1682 61.0775 50.2185 61.0356C50.2689 60.9937 50.3324 60.9707 50.3979 60.9707C50.4635 60.9707 50.5269 60.9937 50.5773 61.0356C50.6277 61.0775 50.6618 61.1357 50.6737 61.2002V65.5944C50.6734 65.6471 50.6572 65.6985 50.6272 65.7419C50.5972 65.7853 50.5547 65.8186 50.5054 65.8374C49.4603 66.353 48.3286 66.67 47.1678 66.7724L46.747 66.7163Z" fill="#613A12"/>
<path d="M54.0114 66.7162H53.6841C52.5016 66.6186 51.3475 66.3015 50.281 65.7813C50.2342 65.76 50.1944 65.7259 50.1662 65.6828C50.1381 65.6398 50.1228 65.5896 50.1221 65.5382V61.144C50.134 61.0796 50.1681 61.0213 50.2185 60.9794C50.2689 60.9375 50.3323 60.9146 50.3979 60.9146C50.4634 60.9146 50.5269 60.9375 50.5773 60.9794C50.6277 61.0213 50.6618 61.0796 50.6737 61.144V65.3512C51.6317 65.7902 52.661 66.053 53.7122 66.1272C54.4586 66.215 55.215 66.1128 55.9113 65.83C56.6076 65.5473 57.2212 65.0931 57.695 64.5098C57.7116 64.4723 57.7362 64.4389 57.7671 64.412C57.798 64.3851 57.8344 64.3652 57.8738 64.3539C57.9132 64.3425 57.9545 64.3399 57.995 64.3463C58.0355 64.3527 58.0741 64.3678 58.1081 64.3907C58.1421 64.4136 58.1707 64.4437 58.1918 64.4788C58.2129 64.5139 58.2261 64.5533 58.2304 64.594C58.2347 64.6348 58.23 64.676 58.2166 64.7147C58.2033 64.7535 58.1816 64.7888 58.1531 64.8183C57.666 65.4441 57.0352 65.9433 56.3143 66.2736C55.5933 66.604 54.8034 66.7558 54.0114 66.7162Z" fill="#613A12"/>
<path d="M55.6566 56.7031C55.6566 58.3766 53.3006 61.6395 50.393 61.6395C47.4853 61.6395 45.1387 58.3766 45.1387 56.7031C45.1387 55.0295 47.4947 53.6646 50.393 53.6646C53.2913 53.6646 55.6566 55.0202 55.6566 56.7031Z" fill="#472702"/>
<path d="M50.3926 61.7705C47.3354 61.7705 44.998 58.3954 44.998 56.7032C44.998 55.011 47.4195 53.5244 50.3926 53.5244C53.3657 53.5244 55.7965 54.9455 55.7965 56.7032C55.7965 58.4608 53.4592 61.7705 50.3926 61.7705ZM50.3926 53.8049C47.5878 53.8049 45.2785 55.1044 45.2785 56.7032C45.2785 58.3019 47.5972 61.4994 50.3926 61.4994C53.188 61.4994 55.516 58.3206 55.516 56.7032C55.516 55.0857 53.2161 53.8049 50.3926 53.8049Z" fill="#472702"/>
<g opacity="0.43">
<path opacity="0.43" d="M37.547 53.5057C38.1873 53.5057 38.7063 52.702 38.7063 51.7106C38.7063 50.7192 38.1873 49.9155 37.547 49.9155C36.9067 49.9155 36.3877 50.7192 36.3877 51.7106C36.3877 52.702 36.9067 53.5057 37.547 53.5057Z" fill="white"/>
</g>
<g opacity="0.14">
<path opacity="0.14" d="M49.8791 55.3475C49.5136 55.3012 49.1425 55.3304 48.7887 55.4333C48.4349 55.5362 48.106 55.7107 47.8223 55.9458C47.6744 56.1117 47.5613 56.3056 47.49 56.5161C47.4186 56.7266 47.3904 56.9493 47.4069 57.1709C47.4235 57.3925 47.4846 57.6086 47.5865 57.8061C47.6883 58.0036 47.829 58.1786 47.9999 58.3206C47.7415 58.317 47.4889 58.2439 47.2684 58.109C47.048 57.9741 46.8679 57.7824 46.7471 57.5539C45.0175 54.88 49.421 54.1508 51.0759 54.3284C51.7584 54.4032 54.4977 54.9268 54.4136 55.9458C54.4136 56.5255 53.2729 56.1702 52.9457 56.058C51.966 55.6652 50.9317 55.4256 49.8791 55.3475Z" fill="white"/>
</g>
<g opacity="0.11">
<path opacity="0.11" d="M53.6933 66.4266C53.1324 68.2965 51.8796 70.1102 50.4304 70.1102C50.048 70.0828 49.6762 69.9714 49.3417 69.784C49.0072 69.5965 48.7182 69.3376 48.4951 69.0257C49.4725 68.9945 50.3988 68.5817 51.0755 67.8757C51.5365 67.3855 51.904 66.8152 52.16 66.1929C52.6617 66.3237 53.1755 66.402 53.6933 66.4266Z" fill="#472702"/>
</g>
<g opacity="0.11">
<path opacity="0.11" d="M82.8164 54.9644C82.8164 55.703 82.8164 56.4229 82.7416 57.1054C82.637 58.6311 82.3865 60.1432 81.9936 61.6211C81.6337 62.9706 81.1159 64.2729 80.451 65.5011C79.8314 66.6537 79.0749 67.7273 78.1978 68.6985C77.5881 69.3737 76.9253 69.999 76.2157 70.5684C70.2322 75.3833 60.752 76.7857 50.0377 76.7857C39.9873 76.7857 30.9839 75.5422 24.9816 71.3818C24.0006 70.7039 23.0892 69.9304 22.261 69.0725C21.3941 68.1759 20.6348 67.1813 19.9985 66.1088C19.1819 64.7341 18.553 63.2562 18.1286 61.7146C17.7128 60.1869 17.4559 58.6204 17.362 57.04C17.3059 56.3575 17.2872 55.6469 17.2872 54.9177C17.2844 53.6176 17.3625 52.3187 17.5209 51.0284C18.2773 44.8832 20.8119 39.0927 24.8134 34.3679C24.6177 34.9752 24.3542 35.5586 24.028 36.1069C19.7647 44.0538 17.175 57.0306 23.5886 64.51C26.1103 67.2871 29.2351 69.4492 32.7229 70.8302C41.2204 74.4513 50.6669 75.2029 59.6301 72.9711C62.1585 72.3695 64.593 71.4259 66.8665 70.1664C71.9772 67.1297 75.7761 62.3011 77.5247 56.6192C79.4693 50.5796 78.4596 44.3436 75.9353 38.6125C74.5946 35.5721 72.7941 32.7562 70.5968 30.2636C70.279 29.899 69.9424 29.5343 69.6619 29.1323C73.3292 31.81 76.3865 35.2355 78.6315 39.1825C80.8766 43.1295 82.2584 47.508 82.6855 52.0287C82.7696 52.9917 82.8164 53.9734 82.8164 54.9644Z" fill="#613A12"/>
</g>
<g opacity="0.16">
<path opacity="0.16" d="M71.5976 31.6567C60.1833 26.0726 47.0917 24.9652 34.9016 28.5527C33.9008 28.8312 32.9276 29.2004 31.994 29.6559C31.4048 29.963 30.8336 30.3032 30.283 30.675C28.7124 31.6785 27.1541 32.682 25.6084 33.6854V33.6013C28.6417 30.2318 32.3367 27.5234 36.4629 25.6451L37.5568 25.1776C39.2121 24.5046 40.9193 23.9668 42.6615 23.5695C43.2786 23.4293 43.9143 23.3077 44.5314 23.1955C45.3541 23.0647 46.1955 22.9525 47.037 22.8777H47.5886C48.402 22.8216 49.2247 22.7842 50.0474 22.7842C51.3818 22.7845 52.715 22.8657 54.0396 23.0273H54.2453C55.0026 23.1301 55.7505 23.2516 56.4985 23.3919C56.9753 23.4854 57.4334 23.5976 57.9195 23.7098C59.8045 24.1664 61.6445 24.7922 63.4169 25.5796L64.0807 25.8788C66.0562 26.7887 67.9354 27.8943 69.6903 29.1791L70.1858 29.5531C70.7016 30.2229 71.1732 30.9255 71.5976 31.6567Z" fill="#613A12"/>
</g>
<g opacity="0.26">
<path opacity="0.26" d="M67.6047 55.086C67.9581 54.033 68.0035 52.901 67.7356 51.8231C67.6009 50.6877 67.2247 49.5943 66.6324 48.6163C66.3257 48.1234 65.885 47.7279 65.3618 47.4763C64.8386 47.2246 64.2546 47.1271 63.678 47.1952C62.8047 47.4512 62.0477 48.0032 61.537 48.7566C61.1939 49.1739 60.8991 49.6286 60.6582 50.1122C61.0322 47.6253 62.7244 45.7461 64.7625 45.7461C67.0625 45.7461 68.9417 48.1676 68.9417 51.1593C68.9572 52.5824 68.4854 53.968 67.6047 55.086Z" fill="#231F20"/>
</g>
<g opacity="0.26">
<path opacity="0.26" d="M33.4799 50.6263C33.3474 51.7121 33.5325 52.813 34.0128 53.7957C34.2554 54.2859 34.6203 54.7053 35.0724 55.0132C35.5244 55.3211 36.0482 55.5071 36.5932 55.5534C37.9302 55.6095 39.0614 54.6184 40.0525 53.6835C40.0525 53.6835 40.0525 53.7303 40.0525 53.7583C39.7892 54.5203 39.3093 55.189 38.6716 55.6822C38.0339 56.1755 37.2661 56.4719 36.4623 56.535C34.1531 56.535 32.2832 54.1136 32.2832 51.1125C32.2832 48.1113 34.1531 45.6992 36.4623 45.6992C38.7716 45.6992 40.4545 47.8963 40.6228 50.6824C40.6228 50.6356 40.6228 50.5795 40.576 50.5235C40.0525 48.5321 37.7712 46.1293 35.5461 47.0549C34.2092 47.6065 33.6015 49.1865 33.4799 50.6263Z" fill="#231F20"/>
</g>
<g opacity="0.2">
<path d="M66.5767 59.7793C67.3253 60.0365 67.9777 60.5159 68.4466 61.1537C68.6716 61.475 68.7977 61.855 68.8093 62.2471C68.8209 62.6392 68.7176 63.026 68.512 63.3601C68.147 63.7985 67.6475 64.1042 67.0909 64.2296C65.9676 64.5525 64.7794 64.5757 63.6443 64.2969C62.5093 64.018 61.467 63.4469 60.6212 62.6402C60.3656 62.4441 60.165 62.1852 60.0389 61.8887C59.9127 61.5922 59.8654 61.2682 59.9013 60.948C60.1444 60.0131 61.7151 59.6578 62.5659 59.4427C63.9061 59.1463 65.3047 59.2636 66.5767 59.7793Z" fill="#EF5823"/>
</g>
<path opacity="0.2" d="M34.9857 59.7789C34.2371 60.0361 33.5847 60.5155 33.1158 61.1533C32.8931 61.4755 32.7684 61.8553 32.7568 62.2468C32.7451 62.6383 32.8471 63.0248 33.0504 63.3597C33.4167 63.7965 33.9157 64.1018 34.4715 64.2292C35.5963 64.552 36.7859 64.5751 37.9224 64.2963C39.0589 64.0175 40.1028 63.4465 40.9505 62.6398C41.2044 62.4426 41.4032 62.1833 41.5277 61.8869C41.6522 61.5904 41.6981 61.2669 41.6611 60.9476C41.418 60.0126 39.8567 59.6574 38.9965 59.4423C37.6563 59.1464 36.2578 59.2638 34.9857 59.7789Z" fill="#EF5823"/>
<g opacity="0.11">
<path opacity="0.11" d="M29.5905 29.478C29.5644 29.5166 29.5329 29.5512 29.497 29.5808C28.8987 30.1044 28.1694 28.6459 27.7767 28.3561C27.199 27.9272 26.5895 27.5428 25.9536 27.2061C24.6202 26.5039 23.1625 26.0688 21.6623 25.9253C20.2052 25.7866 18.7361 26.0004 17.3791 26.5488C16.022 27.0972 14.8167 27.9639 13.865 29.076L13.6406 29.3658C13.9389 28.6715 14.3391 28.0255 14.828 27.4492C17.9226 23.7936 23.8407 23.7095 28.0385 27.2529C28.4032 27.5614 30.0393 28.8142 29.5905 29.478Z" fill="#613A12"/>
</g>
<g opacity="0.11">
<path opacity="0.11" d="M84.8641 28.0478C84.3292 27.532 83.7289 27.0888 83.0784 26.7295C81.935 26.1584 80.6848 25.8327 79.408 25.7731C78.1312 25.7135 76.8561 25.9215 75.6644 26.3836C74.5883 26.7759 73.5696 27.3104 72.6353 27.973C71.9621 28.4311 70.9898 29.5624 70.1297 29.6278C68.3814 29.7774 70.8122 27.5616 71.1861 27.2437C75.384 23.691 81.3021 23.7845 84.406 27.4401C84.565 27.6458 84.7239 27.8514 84.8641 28.0478Z" fill="#613A12"/>
</g>
</g>
<defs>
<clipPath id="clip0">
<rect width="99.9906" height="100" fill="white"/>
</clipPath>
</defs>
</svg>
